<?xml version="1.0" standalone="no"?>
<!DOCTYPE svg PUBLIC "-//W3C//DTD SVG 20010904//EN"
 "http://www.w3.org/TR/2001/REC-SVG-20010904/DTD/svg10.dtd">
<svg version="1.0" xmlns="http://www.w3.org/2000/svg"
 width="213.000000pt" height="125.000000pt" viewBox="0 0 213.000000 125.000000"
 preserveAspectRatio="xMidYMid meet">

<g transform="translate(0.000000,125.000000) scale(0.100000,-0.100000)"
fill="#000000" stroke="none">
<path d="M910 1173 c-39 -35 -55 -96 -32 -120 30 -29 86 -46 170 -48 76 -3 86
-1 113 22 16 14 29 34 28 46 0 15 -2 17 -6 7 -18 -49 -83 -81 -83 -40 0 26 -8
25 -36 -6 -14 -14 -29 -22 -36 -18 -8 5 -5 12 8 23 40 32 37 81 -5 81 -26 0
-61 -38 -61 -66 0 -23 -3 -25 -27 -19 -55 13 -65 38 -39 99 21 50 70 64 131
37 53 -23 59 -19 13 9 -48 29 -101 26 -138 -7z m140 -81 c0 -5 -11 -19 -25
-32 -23 -21 -25 -22 -31 -5 -5 12 -1 23 11 31 21 16 45 18 45 6z"/>
<path d="M1365 1110 c-3 -5 -1 -18 4 -29 8 -14 7 -20 -4 -25 -20 -7 -19 -32 2
-40 14 -6 14 -8 -3 -20 -10 -8 -22 -12 -26 -10 -4 3 -15 1 -25 -4 -12 -7 -22
-4 -37 9 -29 28 -41 23 -17 -7 49 -62 46 -146 -6 -199 -45 -44 -82 -59 -154
-59 -81 0 -153 36 -175 90 -17 40 -18 107 -3 135 6 11 8 25 6 32 -3 7 -13 -7
-22 -30 -16 -37 -20 -41 -37 -32 -26 14 -50 -7 -46 -40 2 -18 14 -31 39 -44
20 -10 47 -33 60 -51 35 -51 73 -69 159 -74 75 -4 128 10 181 51 21 16 59 86
59 109 0 10 4 18 9 18 5 0 16 16 25 35 9 19 22 32 29 29 15 -5 75 36 73 51 -1
5 -14 11 -29 11 -31 2 -44 10 -33 21 3 4 25 2 47 -4 33 -9 42 -8 46 4 7 18
-24 52 -64 69 -38 17 -50 17 -58 4z m73 -30 c17 -11 32 -22 32 -24 0 -9 -65
14 -79 29 -23 23 6 20 47 -5z m-98 -134 c0 -13 -6 -29 -14 -35 -11 -9 -15 -6
-18 13 -5 24 7 46 24 46 4 0 8 -11 8 -24z m-462 -68 c15 -40 10 -45 -23 -24
-21 14 -24 20 -15 36 15 28 24 25 38 -12z"/>
<path d="M1690 1051 c0 -5 9 -12 19 -16 11 -3 24 -19 30 -35 8 -26 7 -32 -12
-45 -29 -20 -36 -19 -47 9 -5 14 -19 30 -30 36 -18 10 -22 8 -27 -9 -7 -26
-58 -29 -85 -4 -10 9 -18 11 -18 6 0 -26 57 -45 170 -60 57 -7 75 10 66 62 -8
40 -66 89 -66 56z m-30 -81 c0 -5 -2 -10 -4 -10 -3 0 -8 5 -11 10 -3 6 -1 10
4 10 6 0 11 -4 11 -10z"/>
<path d="M1839 1017 c-40 -27 -43 -47 -9 -64 14 -7 21 -13 16 -13 -5 0 1 -11
14 -25 33 -36 8 -31 -35 6 -19 17 -35 27 -35 21 0 -6 14 -22 31 -36 41 -35
104 -35 69 0 -16 16 1 54 26 60 33 9 32 47 -1 62 -34 16 -37 16 -76 -11z m76
-18 c0 -9 -13 -15 -37 -17 -44 -4 -50 12 -10 26 33 13 47 10 47 -9z"/>
<path d="M1088 954 c-11 -11 -10 -84 1 -84 6 0 12 3 14 8 8 12 -7 84 -15 76z"/>
<path d="M1170 946 c0 -8 5 -18 10 -21 6 -3 10 3 10 14 0 12 -4 21 -10 21 -5
0 -10 -6 -10 -14z"/>
<path d="M1449 926 c-21 -22 -26 -23 -40 -10 -28 25 -66 -5 -52 -41 3 -9 18
-22 34 -31 16 -8 29 -22 29 -32 0 -29 57 -89 112 -116 83 -41 200 -33 247 18
13 14 37 28 53 31 49 11 56 75 8 75 -12 0 -21 13 -29 44 -6 24 -18 49 -28 57
-15 13 -16 12 -8 -6 17 -39 17 -131 1 -164 -54 -104 -244 -85 -321 32 -25 38
-22 103 6 133 12 13 20 26 17 29 -3 3 -16 -5 -29 -19z m-40 -38 c13 -33 2 -43
-21 -20 -11 11 -17 25 -14 31 11 18 26 13 35 -11z m446 -88 c8 -13 -13 -40
-31 -40 -14 0 -19 31 -7 43 10 10 31 8 38 -3z"/>
<path d="M977 926 c-6 -15 1 -26 15 -26 11 0 10 27 -1 34 -5 3 -11 0 -14 -8z"/>
<path d="M1516 914 c-8 -21 -8 -24 3 -24 5 0 11 9 14 20 6 24 -8 27 -17 4z"/>
<path d="M1627 893 c-14 -51 -16 -73 -8 -73 4 0 11 12 14 28 3 15 9 35 12 45
4 9 3 17 -3 17 -6 0 -13 -8 -15 -17z"/>
<path d="M1696 875 c-3 -9 0 -15 9 -15 8 0 15 7 15 15 0 8 -4 15 -9 15 -5 0
-11 -7 -15 -15z"/>
<path d="M1101 854 c-98 -18 -99 -18 -94 -48 9 -44 38 -61 109 -61 76 0 91 12
96 75 4 54 0 55 -111 34z m92 -36 c-9 -50 -20 -58 -77 -58 -60 1 -87 17 -79
48 4 15 16 23 42 27 20 4 43 8 51 10 8 1 27 3 42 4 26 1 27 -1 21 -31z"/>
<path d="M62 758 c1 -51 4 -83 6 -70 2 12 6 22 9 22 2 0 28 -20 56 -45 29 -25
55 -45 59 -45 5 0 7 51 6 113 -1 89 -3 100 -7 53 l-6 -60 -56 62 c-31 34 -59
62 -63 62 -3 0 -5 -42 -4 -92z"/>
<path d="M493 839 l-23 -8 21 -48 c17 -39 18 -51 8 -70 -7 -13 -15 -23 -18
-23 -3 0 -20 33 -37 73 -24 58 -34 71 -50 69 -10 -2 -22 -7 -27 -11 -4 -4 13
-52 38 -106 l46 -98 33 54 34 53 23 -47 23 -47 18 28 c24 34 98 179 98 189 -1
5 -19 -27 -41 -70 -22 -43 -44 -75 -49 -72 -4 3 -16 25 -26 50 -14 37 -14 48
-4 60 7 9 10 18 7 22 -4 3 -10 -2 -13 -12 -7 -16 -8 -16 -23 3 -12 15 -21 18
-38 11z"/>
<path d="M222 740 c3 -55 8 -103 11 -106 3 -4 34 -7 69 -9 35 -1 46 0 25 2
-39 4 -43 9 -51 56 -4 22 0 30 17 37 17 7 18 9 5 9 -14 1 -18 10 -18 46 0 45
0 45 34 45 19 0 38 5 41 10 4 6 -20 10 -66 10 l-72 0 5 -100z"/>
<path d="M1511 806 c-18 -33 -2 -59 53 -85 29 -15 53 -20 70 -15 27 6 56 38
56 61 0 9 -141 63 -164 63 -1 0 -8 -11 -15 -24z m90 -12 c30 -9 58 -20 63 -25
15 -14 -24 -49 -55 -49 -37 0 -95 50 -86 73 8 21 10 21 78 1z"/>
<path d="M1790 587 c-36 -18 -70 -74 -70 -116 0 -20 9 -55 20 -79 23 -51 59
-69 101 -51 34 14 69 81 68 130 -1 28 -3 24 -13 -23 -13 -63 -30 -88 -57 -88
-50 0 -72 142 -29 188 30 32 58 28 75 -10 9 -21 14 -26 15 -15 0 21 -52 77
-72 77 -7 0 -24 -6 -38 -13z"/>
<path d="M403 582 c-30 -19 -44 -131 -23 -186 10 -27 56 -56 90 -56 11 0 29 9
41 21 27 27 23 82 -6 87 -20 4 -20 4 0 -11 28 -21 11 -72 -25 -72 -32 0 -50
36 -50 100 0 69 18 100 56 98 l29 -1 -30 14 c-34 15 -64 17 -82 6z"/>
<path d="M721 520 l0 -75 51 -40 c98 -77 88 -84 86 56 -1 70 -3 96 -5 60 l-4
-64 -64 69 -64 69 0 -75z"/>
<path d="M1060 468 c0 -95 3 -118 14 -118 32 0 46 13 46 43 l0 31 31 -42 c34
-47 36 -47 63 -27 19 14 19 16 -7 52 l-27 37 24 21 c13 11 27 29 31 40 6 17 9
14 20 -20 23 -72 54 -135 67 -135 26 0 39 18 82 115 38 85 49 100 71 103 23 3
25 1 25 -40 0 -24 3 -73 6 -110 6 -59 9 -67 30 -71 l24 -4 0 113 0 114 35 0
c19 0 35 5 35 10 0 12 -159 13 -179 1 -7 -5 -24 -28 -36 -52 -19 -39 -26 -44
-55 -44 -31 0 -34 3 -47 48 -15 52 -18 54 -52 31 -21 -15 -23 -15 -38 5 -13
19 -23 21 -89 19 l-74 -3 0 -117z m150 97 c34 -41 -3 -105 -61 -105 -28 0 -29
1 -29 53 0 30 3 57 7 60 12 13 71 7 83 -8z m180 -99 c0 -2 -7 -21 -16 -42
l-17 -39 -12 35 c-7 19 -10 38 -8 43 4 7 53 10 53 3z"/>
<path d="M1662 580 c-22 -9 -22 -12 -16 -112 7 -125 7 -125 34 -123 21 1 22 6
24 120 0 71 -3 119 -9 121 -5 1 -20 -1 -33 -6z"/>
<path d="M1922 468 c1 -68 3 -102 5 -75 2 26 7 47 9 47 3 0 31 -22 62 -50 31
-27 59 -50 62 -50 4 0 6 54 6 120 -1 66 -5 120 -9 120 -5 0 -8 -24 -7 -52 1
-29 1 -56 1 -60 -1 -4 -27 21 -58 56 -32 35 -61 65 -65 65 -5 1 -7 -54 -6
-121z"/>
<path d="M543 498 c4 -46 7 -98 7 -115 l0 -33 83 2 c61 1 68 3 30 5 -51 4 -53
5 -53 33 0 15 -3 35 -6 44 -4 12 0 16 17 17 17 1 19 3 7 6 -14 3 -18 15 -18
54 l0 49 40 0 c22 0 40 5 40 10 0 6 -32 10 -76 10 l-77 0 6 -82z"/>
<path d="M880 548 c0 -18 3 -70 7 -115 l6 -83 81 2 c58 1 67 3 31 5 -54 5 -65
14 -65 56 0 19 7 30 23 37 16 6 17 9 5 9 -24 1 -29 15 -22 60 6 40 8 41 45 41
22 0 39 5 39 10 0 6 -32 10 -75 10 l-75 0 0 -32z"/>
<path d="M723 390 c0 -25 2 -35 4 -22 2 12 2 32 0 45 -2 12 -4 2 -4 -23z"/>
<path d="M220 140 c0 -64 3 -80 15 -80 22 0 35 33 35 87 0 49 -12 73 -37 73
-10 0 -13 -21 -13 -80z m40 6 c0 -23 -7 -51 -15 -62 -13 -17 -14 -12 -15 55 0
64 2 72 15 61 9 -7 15 -29 15 -54z"/>
<path d="M898 138 c2 -46 6 -85 8 -87 3 -3 10 1 16 7 9 9 9 12 0 12 -8 0 -12
23 -12 75 0 41 -4 75 -8 75 -5 0 -7 -37 -4 -82z"/>
<path d="M1443 213 c-16 -6 -18 -116 -3 -144 12 -21 35 -25 46 -7 5 8 2 9 -9
5 -23 -9 -37 22 -37 83 0 43 3 52 23 60 12 5 15 9 7 9 -8 -1 -21 -3 -27 -6z"/>
<path d="M301 134 c-6 -37 -10 -69 -7 -71 3 -3 8 12 11 33 10 57 13 63 15 24
1 -19 6 -44 11 -55 6 -13 7 4 3 50 -4 39 -9 73 -13 78 -4 4 -13 -22 -20 -59z"/>
<path d="M380 179 c-1 -24 -1 -24 -17 -4 -15 19 -15 19 -8 -5 4 -14 10 -47 14
-75 l7 -50 6 75 c3 41 4 77 2 79 -2 2 -4 -7 -4 -20z"/>
<path d="M410 174 c-20 -50 -6 -124 22 -124 9 0 9 3 0 12 -7 7 -12 35 -12 63
0 28 5 56 12 63 9 9 9 12 0 12 -7 0 -17 -12 -22 -26z"/>
<path d="M485 158 c3 -24 8 -56 10 -72 8 -54 18 -41 11 14 -3 30 -6 65 -6 78
0 12 -5 22 -11 22 -8 0 -9 -13 -4 -42z"/>
<path d="M525 191 c-8 -13 4 -79 16 -87 5 -3 9 -14 9 -24 0 -10 4 -21 9 -25 6
-3 6 8 0 28 -5 18 -8 50 -6 71 2 38 -14 59 -28 37z m21 -38 c-11 -11 -19 6
-11 24 8 17 8 17 12 0 3 -10 2 -21 -1 -24z"/>
<path d="M580 125 c0 -65 2 -75 18 -74 10 0 12 3 5 6 -7 2 -13 20 -13 38 0 18
6 36 13 38 10 4 10 6 0 6 -16 1 -17 41 -2 41 5 0 7 5 4 10 -16 26 -25 3 -25
-65z"/>
<path d="M678 194 c-11 -11 -10 -44 2 -44 5 0 9 -18 8 -40 -1 -22 2 -43 5 -47
8 -8 7 71 -2 110 -3 16 -9 25 -13 21z"/>
<path d="M722 128 l1 -73 7 55 c5 49 7 52 14 27 5 -15 11 -26 13 -23 7 7 -16
74 -28 81 -5 4 -8 -24 -7 -67z"/>
<path d="M782 147 c-1 -36 -6 -56 -12 -52 -12 8 -13 -5 -1 -24 14 -22 23 23
18 85 l-3 49 -2 -58z"/>
<path d="M810 126 c0 -79 8 -91 34 -54 19 27 20 64 3 97 -25 50 -37 37 -37
-43z m32 23 c6 -38 -1 -79 -13 -79 -5 0 -9 25 -9 55 0 59 15 75 22 24z"/>
<path d="M944 186 c-3 -7 -4 -39 -2 -71 2 -41 7 -60 18 -63 12 -4 13 -2 3 9
-15 16 -17 69 -3 69 6 0 5 9 -2 21 -10 17 -10 23 0 26 6 3 12 9 12 14 0 14
-20 11 -26 -5z"/>
<path d="M1014 168 c9 -43 14 -79 15 -102 1 -11 4 -17 7 -13 10 10 -7 147 -18
147 -6 0 -8 -13 -4 -32z"/>
<path d="M1054 189 c-5 -9 -2 -10 9 -6 13 5 17 1 17 -16 0 -18 -2 -19 -10 -7
-7 11 -10 7 -10 -17 0 -17 5 -35 10 -38 6 -3 10 -15 10 -25 0 -10 5 -22 11
-26 8 -4 9 1 3 17 -5 13 -9 46 -9 73 0 48 -15 70 -31 45z"/>
<path d="M1112 130 c1 -73 1 -74 7 -20 l6 55 19 -52 c11 -29 24 -53 28 -53 4
0 7 30 6 68 l-1 67 -6 -55 -7 -55 -12 40 c-6 22 -18 49 -26 60 -14 18 -15 13
-14 -55z"/>
<path d="M1205 130 c0 -63 2 -70 20 -70 15 0 17 2 7 9 -10 6 -13 26 -10 70 2
36 -1 61 -7 61 -6 0 -10 -30 -10 -70z"/>
<path d="M1352 188 c-17 -17 -15 -113 3 -128 8 -6 19 -9 25 -5 13 8 13 65 0
65 -5 0 -7 -7 -4 -15 4 -8 3 -23 0 -32 -6 -15 -8 -15 -16 -3 -14 21 -12 104 2
118 7 7 10 12 7 12 -3 0 -10 -5 -17 -12z"/>
<path d="M1504 186 c-3 -7 -4 -39 -2 -71 2 -41 7 -60 18 -63 12 -4 13 -2 3 9
-7 7 -13 25 -13 40 0 15 6 30 13 32 10 4 10 6 0 6 -15 1 -18 41 -3 41 6 0 10
5 10 10 0 15 -20 12 -26 -4z"/>
<path d="M1552 128 l1 -73 7 55 c5 49 7 52 14 27 5 -15 11 -26 13 -23 7 7 -16
74 -28 81 -5 4 -8 -24 -7 -67z"/>
<path d="M1652 134 c10 -90 17 -92 15 -5 -1 42 -6 71 -13 71 -7 0 -8 -21 -2
-66z"/>
<path d="M1697 193 c-4 -3 -7 -37 -7 -75 0 -58 2 -68 18 -67 10 0 12 3 5 6 -7
2 -13 20 -13 38 0 18 6 36 13 38 10 4 10 6 0 6 -15 1 -18 41 -3 41 6 0 10 5
10 10 0 11 -13 13 -23 3z"/>
<path d="M1740 156 c0 -25 5 -46 10 -46 6 0 10 -8 10 -17 0 -10 5 -25 11 -33
8 -11 8 -9 3 10 -4 14 -8 47 -8 74 -1 30 -6 51 -13 53 -9 3 -13 -9 -13 -41z
m17 2 c-3 -7 -5 -2 -5 12 0 14 2 19 5 13 2 -7 2 -19 0 -25z"/>
<path d="M1252 123 l1 -68 6 55 c6 59 10 58 31 -7 7 -24 17 -43 22 -43 4 0 7
30 6 68 l-1 67 -6 -55 -6 -55 -15 49 c-23 76 -40 71 -38 -11z"/>
<path d="M1610 139 c0 -27 -4 -48 -9 -45 -5 4 -7 -3 -4 -14 11 -41 23 -18 23
45 0 36 -2 65 -5 65 -3 0 -5 -23 -5 -51z"/>
<path d="M471 125 c-1 -11 -4 -31 -6 -45 l-6 -25 11 25 c6 13 9 33 7 45 -4 19
-4 19 -6 0z"/>
<path d="M1001 125 c-1 -11 -4 -31 -7 -45 -5 -22 -4 -23 6 -7 6 10 9 30 7 45
-3 18 -5 20 -6 7z"/>
<path d="M661 113 c0 -12 -4 -30 -7 -40 -5 -14 -4 -15 5 -7 7 6 11 24 8 40 -3
21 -4 23 -6 7z"/>
<path d="M1742 70 c0 -14 2 -19 5 -12 2 6 2 18 0 25 -3 6 -5 1 -5 -13z"/>
<path d="M1061 64 c0 -11 3 -14 6 -6 3 7 2 16 -1 19 -3 4 -6 -2 -5 -13z"/>
</g>
</svg>
